<svg width="129" height="46" viewBox="0 0 129 46" fill="none" xmlns="http://www.w3.org/2000/svg">
<g clip-path="url(#clip0_9_211)">
<rect width="129" height="46" fill="white"/>
<path d="M8.2 32.96C7.88 32.96 7.54667 32.92 7.2 32.84C6.88 32.7867 6.54667 32.68 6.2 32.52C6.01333 32.2533 5.76 32.12 5.44 32.12C5.25333 31.9067 5.05333 31.76 4.84 31.68C4.68 31.5733 4.50667 31.4133 4.32 31.2C4.16 30.9867 4.01333 30.8667 3.88 30.84C3.58667 30.4933 3.30667 30.1333 3.04 29.76C2.77333 29.3867 2.53333 29 2.32 28.6V28.52C2.32 28.3333 2.25333 28.1867 2.12 28.08C2.01333 27.9733 1.90667 27.84 1.8 27.68C1.69333 27.4933 1.66667 27.3067 1.72 27.12C1.77333 26.9067 1.69333 26.72 1.48 26.56C1.4 26.32 1.34667 26.0533 1.32 25.76C1.32 25.4667 1.25333 25.2267 1.12 25.04C1.06667 24.9333 1.04 24.8667 1.04 24.84C1.04 24.7333 1.06667 24.64 1.12 24.56C1.17333 24.48 1.21333 24.3867 1.24 24.28C1.10667 24.2533 1.04 24.1467 1.04 23.96V23.84C1.04 23.5467 1.16 23.32 1.4 23.16C1.64 23 1.89333 22.92 2.16 22.92C2.58667 22.92 2.84 23.08 2.92 23.4L3.04 23.84C2.93333 23.9733 2.88 24.08 2.88 24.16C2.88 24.24 2.97333 24.3733 3.16 24.56C3.18667 24.6667 3.2 24.8133 3.2 25C3.78667 25.9067 4.57333 26.72 5.56 27.44L5.6 27.52C5.70667 27.6 5.8 27.6667 5.88 27.72C5.96 27.7467 6.05333 27.7867 6.16 27.84C6.45333 28.0267 6.61333 28.1733 6.64 28.28C6.69333 28.3867 6.92 28.44 7.32 28.44C7.4 28.44 7.45333 28.5067 7.48 28.64C7.53333 28.7733 7.6 28.8667 7.68 28.92C7.76 28.9467 7.85333 28.9467 7.96 28.92C8.06667 28.8667 8.16 28.8667 8.24 28.92C8.29333 28.9467 8.33333 28.9867 8.36 29.04C8.41333 29.0667 8.45333 29.0933 8.48 29.12C8.53333 29.1467 8.77333 29.24 9.2 29.4C9.62667 29.5333 10.0533 29.68 10.48 29.84C10.9333 29.9733 11.2133 30.0533 11.32 30.08C11.5333 29.84 11.76 29.64 12 29.48C12.24 29.2933 12.4533 29.0667 12.64 28.8C12.8267 28.7467 12.9333 28.6667 12.96 28.56C12.9867 28.4267 13.0133 28.28 13.04 28.12C13.1733 27.9333 13.2933 27.72 13.4 27.48C13.5067 27.24 13.6267 27.04 13.76 26.88C14.0533 26.5333 14.2267 26.16 14.28 25.76C14.36 25.36 14.5067 25.0267 14.72 24.76C14.7733 24.7067 14.8533 24.6533 14.96 24.6C15.0933 24.5467 15.16 24.4933 15.16 24.44V24.4C15.16 24.1333 15.2133 23.8667 15.32 23.6C15.4533 23.3067 15.5733 23.0267 15.68 22.76C15.7867 22.6533 15.8533 22.5333 15.88 22.4C15.9333 22.24 16 22.1067 16.08 22C16.1867 21.8933 16.2667 21.8 16.32 21.72C16.4 21.64 16.4267 21.52 16.4 21.36L16.48 20.8C16.48 20.6667 16.5067 20.5067 16.56 20.32C16.64 20.1067 16.6933 19.9333 16.72 19.8C16.7733 19.5333 16.8533 19.2133 16.96 18.84C17.0667 18.44 17.1733 18.1333 17.28 17.92C17.4667 17.5733 17.6 17.2133 17.68 16.84C17.76 16.44 17.8533 16.0667 17.96 15.72C18.1467 15.6133 18.24 15.44 18.24 15.2C18.2933 15.0933 18.36 14.84 18.44 14.44C18.52 14.04 18.56 13.7867 18.56 13.68C18.48 13.68 18.3867 13.6533 18.28 13.6C18.2 13.3333 18.2267 13.0267 18.36 12.68C18.4933 12.3067 18.6667 11.9467 18.88 11.6C19.0933 11.2533 19.2533 10.9733 19.36 10.76C19.5467 10.4667 19.7733 10.2133 20.04 10C20.3067 9.76 20.6267 9.64 21 9.64C21.1333 9.64 21.28 9.65333 21.44 9.68C21.6 9.68 21.72 9.73333 21.8 9.84C22.1467 9.97333 22.32 10.1733 22.32 10.44C22.32 10.6267 22.2533 10.8533 22.12 11.12C21.9867 11.36 21.8933 11.6 21.84 11.84C21.52 11.9733 21.3333 12.3067 21.28 12.84C21.2533 13.3467 21.2 13.7467 21.12 14.04C21.0933 14.1733 21.04 14.28 20.96 14.36C20.88 14.44 20.9067 14.56 21.04 14.72V14.96L20.92 15.04L21.08 15.32C21.08 15.4 21.08 15.5733 21.08 15.84C21.1067 16.08 21.1333 16.32 21.16 16.56C21.1867 16.7733 21.1867 16.8933 21.16 16.92C21.1333 16.9733 21.08 17 21 17C20.84 17 20.7333 16.9333 20.68 16.8C20.6 16.5867 20.56 16.3467 20.56 16.08C20.5867 15.8133 20.52 15.5733 20.36 15.36C20.3333 15.28 20.32 15.2 20.32 15.12C20.32 15.04 20.32 14.9867 20.32 14.96C20.32 14.8533 20.32 14.7733 20.32 14.72C20.3467 14.6667 20.36 14.6267 20.36 14.6C20.36 14.5467 20.2533 14.36 20.04 14.04V13.64C19.7467 14.0133 19.5333 14.3867 19.4 14.76C19.2667 14.8667 19.1867 15 19.16 15.16C19.1333 15.32 19.0933 15.4667 19.04 15.6C18.7733 16.2933 18.5067 16.9867 18.24 17.68C18 18.3733 17.76 19.0667 17.52 19.76C17.3333 19.8667 17.24 20.0133 17.24 20.2C17.24 20.36 17.2133 20.52 17.16 20.68L16.4 22.76C16.2133 22.8133 16.12 22.9067 16.12 23.04C16.1467 23.1467 16.16 23.2667 16.16 23.4C16.16 23.5867 16.1067 23.76 16 23.92C15.92 24.0533 15.8533 24.2 15.8 24.36C15.4267 25.4 14.9733 26.4533 14.44 27.52C13.9333 28.5867 13.3333 29.56 12.64 30.44C13.0133 30.52 13.3733 30.5867 13.72 30.64C14.0667 30.72 14.4133 30.7867 14.76 30.84C15.1067 30.8933 15.5333 30.9467 16.04 31C16.5733 31.0533 16.9733 31.1067 17.24 31.16C17.5333 31.2133 17.8533 31.2533 18.2 31.28C18.5467 31.3067 18.8667 31.32 19.16 31.32H19.44C19.5467 31.32 19.6267 31.32 19.68 31.32C19.76 31.3467 19.8667 31.3867 20 31.44C20.0533 31.4667 20.1067 31.4533 20.16 31.4C20.2133 31.3733 20.2667 31.36 20.32 31.36C20.4533 31.3333 20.5867 31.32 20.72 31.32C20.8533 31.3467 20.9733 31.36 21.08 31.36C21.1333 31.3333 21.2 31.32 21.28 31.32C21.3867 31.32 21.48 31.3333 21.56 31.36C21.6667 31.4133 21.76 31.44 21.84 31.44C21.9733 31.44 22.08 31.4133 22.16 31.36C22.24 31.3333 22.3333 31.32 22.44 31.32C22.5733 31.4267 22.6933 31.48 22.8 31.48C22.9067 31.48 23.0133 31.4133 23.12 31.28C23.4133 31.2533 23.76 31.2 24.16 31.12C24.5867 31.04 24.76 30.7733 24.68 30.32C24.6533 30.1067 24.6133 29.9733 24.56 29.92C24.5067 29.8667 24.4133 29.7733 24.28 29.64C24.1733 29.56 24.08 29.4533 24 29.32C23.92 29.1867 23.8133 29.1067 23.68 29.08C23.6267 29.0267 23.6 28.9467 23.6 28.84C23.6 28.68 23.6933 28.6 23.88 28.6C23.9867 28.6 24.0933 28.6533 24.2 28.76C24.3067 28.8133 24.3733 28.8933 24.4 29C24.4533 29.1067 24.5333 29.2 24.64 29.28C24.6933 29.3867 24.7867 29.4667 24.92 29.52C25.0533 29.5733 25.1733 29.6533 25.28 29.76C25.5733 30.1867 25.72 30.5733 25.72 30.92C25.72 31.4267 25.4933 31.8533 25.04 32.2C24.5867 32.5467 24.0533 32.7333 23.44 32.76C23.3867 32.7067 23.3067 32.68 23.2 32.68C23.0933 32.68 23 32.6933 22.92 32.72C22.8667 32.7467 22.7867 32.76 22.68 32.76C22.1733 32.7333 21.6533 32.68 21.12 32.6C20.5867 32.52 20.0667 32.4533 19.56 32.4C19.5067 32.4 19.4533 32.3867 19.4 32.36C19.3467 32.36 19.2933 32.36 19.24 32.36C19.0533 32.2267 18.8133 32.16 18.52 32.16C18.2533 32.16 18.0133 32.1333 17.8 32.08C17.72 32.0533 17.5333 32.0133 17.24 31.96C16.9733 31.9067 16.7067 31.8533 16.44 31.8C16.2 31.7467 16.0533 31.7333 16 31.76C15.7067 31.7067 15.4 31.6267 15.08 31.52C14.7867 31.44 14.4933 31.3867 14.2 31.36C13.88 31.3067 13.5467 31.2267 13.2 31.12C12.88 31.04 12.56 30.96 12.24 30.88C11.6533 31.52 11.0267 32.0267 10.36 32.4C9.69333 32.7733 8.97333 32.96 8.2 32.96ZM7.92 32.28C8.58667 32.28 9.14667 32.1067 9.6 31.76C10.08 31.4133 10.5333 31 10.96 30.52C10.6933 30.4667 10.4267 30.4 10.16 30.32C9.89333 30.24 9.62667 30.1467 9.36 30.04C9.12 29.9333 8.90667 29.8533 8.72 29.8C8.56 29.72 8.34667 29.6533 8.08 29.6C7.97333 29.5733 7.85333 29.5333 7.72 29.48C7.58667 29.4267 7.45333 29.3867 7.32 29.36C7.13333 29.28 6.96 29.1733 6.8 29.04C6.64 28.88 6.45333 28.8267 6.24 28.88C6.10667 28.8267 5.96 28.7733 5.8 28.72C5.66667 28.6667 5.53333 28.6 5.4 28.52C5.26667 28.4133 5.17333 28.32 5.12 28.24C5.06667 28.1333 4.93333 28.1067 4.72 28.16L4.4 28C4.29333 27.8933 4.2 27.7867 4.12 27.68C4.06667 27.5733 3.94667 27.52 3.76 27.52C3.54667 27.52 3.30667 27.4 3.04 27.16C2.77333 26.8933 2.57333 26.6667 2.44 26.48C2.57333 26.8267 2.70667 27.16 2.84 27.48C2.97333 27.8 3.10667 28.12 3.24 28.44C3.29333 28.6267 3.36 28.7867 3.44 28.92C3.54667 29.0267 3.57333 29.1733 3.52 29.36C3.52 29.4133 3.58667 29.48 3.72 29.56C3.85333 29.6133 3.97333 29.72 4.08 29.88C4.13333 30.0933 4.2 30.2133 4.28 30.24C4.36 30.2667 4.44 30.3467 4.52 30.48C4.73333 30.72 4.85333 30.9067 4.88 31.04C4.90667 31.1733 5.14667 31.2667 5.6 31.32L5.96 31.56C6.06667 31.7467 6.18667 31.84 6.32 31.84C6.45333 31.8667 6.6 31.9067 6.76 31.96C6.97333 32.0133 7.16 32.08 7.32 32.16C7.50667 32.24 7.70667 32.28 7.92 32.28ZM34.5328 29.96C34.1328 29.96 33.8395 29.7867 33.6528 29.44C33.6261 29.36 33.5595 29.24 33.4528 29.08C33.3728 28.92 33.3061 28.7867 33.2528 28.68V28.64C33.2528 28.5867 33.2661 28.5333 33.2928 28.48C33.3195 28.4267 33.3328 28.3733 33.3328 28.32C33.3328 28.2133 33.3061 28.12 33.2528 28.04C33.1995 27.9333 33.1728 27.8267 33.1728 27.72C33.1728 27.3467 33.2795 26.9067 33.4928 26.4C33.7328 25.8933 33.9195 25.4533 34.0528 25.08C34.1061 24.8667 34.2395 24.6133 34.4528 24.32C34.4795 24.2933 34.5061 24.28 34.5328 24.28C34.5861 24.28 34.6261 24.2667 34.6528 24.24C34.7061 24.16 34.7328 24.08 34.7328 24C34.7595 23.8933 34.7861 23.8 34.8128 23.72C34.8395 23.6667 34.8928 23.64 34.9728 23.64C35.0528 23.64 35.1061 23.6133 35.1328 23.56C35.1595 23.5067 35.1195 23.48 35.0128 23.48C34.9061 23.48 34.8661 23.4533 34.8928 23.4C35.0795 23.0533 35.2795 22.6933 35.4928 22.32C35.7328 21.9467 35.8928 21.7067 35.9728 21.6C35.9461 21.6267 35.9328 21.6 35.9328 21.52C35.9328 21.4133 35.9061 21.3733 35.8528 21.4C35.8261 21.4267 35.7595 21.4933 35.6528 21.6C35.5461 21.7067 35.4661 21.7867 35.4128 21.84C35.2795 21.9467 35.1195 22.0933 34.9328 22.28C34.7461 22.4667 34.6261 22.5867 34.5728 22.64C34.4928 22.6667 34.3861 22.7867 34.2528 23C34.1195 23.1867 34.0261 23.3067 33.9728 23.36C33.8661 23.4667 33.7595 23.52 33.6528 23.52C33.5995 23.52 33.5595 23.4933 33.5328 23.44C33.5328 23.36 33.5595 23.28 33.6128 23.2C33.6661 23.1467 33.7195 23.08 33.7728 23C33.8261 22.8933 33.8661 22.8133 33.8928 22.76C33.9195 22.7333 33.9595 22.6933 34.0128 22.64C34.0661 22.56 34.0928 22.5067 34.0928 22.48L34.4128 22.12C34.4395 22.0933 34.4928 22.0933 34.5728 22.12C34.6528 22.12 34.7061 22.1067 34.7328 22.08C34.7595 22.0267 34.7195 22 34.6128 22C34.5328 21.9733 34.5061 21.9467 34.5328 21.92C34.7728 21.4933 35.0795 21.08 35.4528 20.68C35.8261 20.28 36.0795 20 36.2128 19.84C36.3461 19.68 36.5195 19.56 36.7328 19.48C36.9728 19.3733 37.1995 19.32 37.4128 19.32C37.5995 19.32 37.7328 19.3333 37.8128 19.36C37.9728 19.4133 38.1595 19.4933 38.3728 19.6C38.6128 19.68 38.7595 19.8 38.8128 19.96C38.8928 20.12 38.8395 20.3733 38.6528 20.72C38.4661 21.0667 38.2395 21.4133 37.9728 21.76C37.7328 22.08 37.5328 22.2933 37.3728 22.4C37.3461 22.4267 37.2795 22.44 37.1728 22.44C37.0661 22.44 36.9328 22.44 36.7728 22.44C36.6128 22.4133 36.5195 22.4267 36.4928 22.48C36.4128 22.5867 36.3195 22.6933 36.2128 22.8C36.1061 22.88 36.0261 22.9867 35.9728 23.12C35.9461 23.28 35.9061 23.4133 35.8528 23.52C35.8261 23.6267 35.7461 23.7867 35.6128 24C35.5861 24.0533 35.5328 24.1467 35.4528 24.28C35.3728 24.3867 35.3195 24.4667 35.2928 24.52C35.1061 25.1067 34.9328 25.6667 34.7728 26.2C34.6395 26.7067 34.5728 27.1333 34.5728 27.48C34.5728 27.8267 34.6795 28.1333 34.8928 28.4C35.1061 28.64 35.3861 28.76 35.7328 28.76C36.1328 28.76 36.5595 28.6267 37.0128 28.36C37.2795 28.2533 37.5728 28.0533 37.8928 27.76C37.9461 27.7067 37.9861 27.6667 38.0128 27.64C38.0661 27.5867 38.1195 27.5467 38.1728 27.52H38.2928C38.4261 27.52 38.4928 27.5733 38.4928 27.68C38.4928 27.7867 38.3995 27.92 38.2128 28.08C38.1061 28.16 37.9995 28.2267 37.8928 28.28C37.8128 28.3333 37.7195 28.4 37.6128 28.48C37.4795 28.56 37.3328 28.6933 37.1728 28.88C37.0128 29.04 36.8261 29.12 36.6128 29.12H36.5728C36.4928 29.12 36.4261 29.1067 36.3728 29.08C36.3195 29.0267 36.2661 29.0133 36.2128 29.04C36.1328 29.0667 36.1328 29.12 36.2128 29.2C36.3195 29.2533 36.3328 29.3067 36.2528 29.36L35.9328 29.52C35.3461 29.8133 34.8795 29.96 34.5328 29.96ZM28.0528 29.72C27.8928 29.72 27.6928 29.5467 27.4528 29.2C27.2928 28.9867 27.2128 28.6533 27.2128 28.2C27.2128 27.7467 27.2928 27.2533 27.4528 26.72C27.6395 26.1867 27.8661 25.72 28.1328 25.32C28.4261 24.7333 28.6261 24.2933 28.7328 24C28.8395 23.7067 28.9461 23.4667 29.0528 23.28C29.0528 23.2533 29.0261 23.2267 28.9728 23.2C28.9195 23.1733 28.8928 23.12 28.8928 23.04C28.7328 22.9333 28.5595 22.7867 28.3728 22.6C28.2128 22.3867 28.1995 22.1867 28.3328 22C28.3861 21.9467 28.4261 21.92 28.4528 21.92C28.4795 21.8933 28.4928 21.88 28.4928 21.88V21.8C28.4928 21.6933 28.5328 21.6267 28.6128 21.6C28.7195 21.5733 28.7728 21.5333 28.7728 21.48C28.8261 21.1067 29.1328 20.8267 29.6928 20.64C30.2795 20.4533 30.7995 20.36 31.2528 20.36C31.7595 20.36 32.0128 20.44 32.0128 20.6C32.0128 20.68 31.9195 20.7733 31.7328 20.88C31.6528 20.9067 31.5195 21.0133 31.3328 21.2C31.1461 21.3867 30.9728 21.6133 30.8128 21.88L30.5328 22.36L30.2528 22.72C30.0928 23.0133 29.9195 23.32 29.7328 23.64C29.5728 23.9333 29.3061 24.4933 28.9328 25.32C28.8261 25.5867 28.7328 25.84 28.6528 26.08C28.5995 26.32 28.5995 26.5067 28.6528 26.64C28.6795 26.6667 28.5861 26.76 28.3728 26.92C28.1861 27.08 28.1061 27.1733 28.1328 27.2C28.1595 27.2 28.1995 27.2133 28.2528 27.24C28.3061 27.24 28.3728 27.24 28.4528 27.24C28.6128 27.24 28.7728 27.2133 28.9328 27.16C29.0128 27.1333 29.0795 27.08 29.1328 27C29.1861 26.8933 29.2261 26.84 29.2528 26.84C29.4128 26.84 29.5861 26.8 29.7728 26.72C30.0661 26.5867 30.4261 26.32 30.8528 25.92C30.9061 25.8667 31.0128 25.8267 31.1728 25.8C31.3328 25.7467 31.4661 25.6533 31.5728 25.52C31.8928 25.2267 32.0795 25.0533 32.1328 25C32.1861 24.92 32.3461 24.7467 32.6128 24.48C32.6128 24.4533 32.6661 24.3333 32.7728 24.12C32.8795 23.88 32.9328 23.7467 32.9328 23.72C32.9861 23.5867 33.0395 23.52 33.0928 23.52C33.1995 23.52 33.2795 23.6133 33.3328 23.8C33.4128 23.9867 33.4128 24.1467 33.3328 24.28C33.3061 24.3067 33.2395 24.36 33.1328 24.44C33.0528 24.52 32.9861 24.5867 32.9328 24.64L32.4128 25.16L31.3328 26.12C31.3061 26.1467 31.2795 26.1867 31.2528 26.24C31.2261 26.2933 31.1861 26.3467 31.1328 26.4L30.7728 26.96C30.7461 27.0133 30.6928 27.0133 30.6128 26.96C30.5328 26.88 30.4261 26.8933 30.2928 27C30.2661 27.0267 30.2395 27.08 30.2128 27.16C30.2128 27.24 30.1995 27.3067 30.1728 27.36C30.1461 27.44 30.1461 27.4933 30.1728 27.52C30.1995 27.52 30.2128 27.5333 30.2128 27.56C30.1861 27.64 30.1328 27.6933 30.0528 27.72C29.9995 27.7467 29.9461 27.7867 29.8928 27.84C29.8661 27.8667 29.8661 27.9067 29.8928 27.96C29.9195 28.0133 29.9061 28.0667 29.8528 28.12C29.8261 28.2 29.7995 28.2267 29.7728 28.2C29.7461 28.1733 29.7061 28.1867 29.6528 28.24C29.6261 28.2667 29.5861 28.3067 29.5328 28.36C29.5061 28.3867 29.4661 28.4133 29.4128 28.44C29.1995 28.52 29.0795 28.6267 29.0528 28.76C29.0261 28.8933 28.9328 29.04 28.7728 29.2C28.4261 29.5467 28.1861 29.72 28.0528 29.72ZM39.2263 30.12C39.0663 30.12 38.9863 30.0267 38.9863 29.84C38.9863 29.7067 39.0263 29.5467 39.1063 29.36C39.3196 28.9067 39.5596 28.2667 39.8263 27.44C40.1196 26.6133 40.4796 25.9067 40.9063 25.32C41.0396 25.0267 41.2396 24.6667 41.5063 24.24C41.7996 23.7867 42.0796 23.2533 42.3463 22.64V22.44C42.3463 22.36 42.3463 22.2933 42.3463 22.24C42.3729 22.16 42.3996 22.08 42.4263 22C42.5329 21.7867 42.6263 21.64 42.7063 21.56C42.8129 21.48 42.9196 21.3333 43.0263 21.12C43.0263 21.0667 43.0263 21.0133 43.0263 20.96C43.0529 20.9067 43.0796 20.8533 43.1063 20.8C43.0529 20.8533 43.0396 20.8133 43.0663 20.68C43.0129 20.68 43.0663 20.5467 43.2263 20.28C43.3329 20.04 43.4129 19.9067 43.4663 19.88H43.5063C43.6129 19.72 43.7063 19.5867 43.7863 19.48C43.8663 19.3467 43.8929 19.2667 43.8663 19.24V19.16C43.8663 18.9733 43.9196 18.8 44.0263 18.64C44.1596 18.48 44.2796 18.3067 44.3863 18.12C44.4663 18.0133 44.5329 17.96 44.5863 17.96C44.6396 17.96 44.6663 17.9733 44.6663 18C44.6929 18 44.7196 18 44.7463 18C44.8263 18 44.8663 17.9333 44.8663 17.8C44.8663 17.7467 44.8529 17.68 44.8263 17.6C44.8263 17.52 44.8129 17.4267 44.7862 17.32C44.8129 17.1867 44.9196 17.08 45.1063 17L45.2263 16.96C45.3596 16.4 45.5196 16.0267 45.7063 15.84C45.7596 15.7867 45.8129 15.7333 45.8663 15.68C45.9196 15.6267 45.9729 15.5733 46.0263 15.52C46.3463 15.1733 46.5863 14.8 46.7463 14.4C46.7996 14.2933 46.8663 14.2133 46.9463 14.16C47.0529 14.08 47.1463 13.9867 47.2263 13.88C47.2796 13.8 47.2929 13.72 47.2663 13.64C47.2663 13.5333 47.2796 13.44 47.3063 13.36C47.4396 13.1467 47.5329 13.0267 47.5863 13C47.6396 12.9733 47.6929 12.9467 47.7463 12.92C47.8263 12.8667 47.9596 12.7467 48.1463 12.56C48.2263 12.4267 48.3063 12.2933 48.3863 12.16C48.4929 12.0267 48.5996 11.8933 48.7063 11.76C48.8663 11.5733 49.0396 11.44 49.2263 11.36C49.4129 11.28 49.5996 11.16 49.7863 11C49.8396 10.9467 49.8663 10.8667 49.8663 10.76C49.8663 10.6267 49.8929 10.5333 49.9463 10.48C50.8796 9.73333 51.8796 9.10667 52.9463 8.6C54.0396 8.09333 54.8796 7.84 55.4663 7.84C55.6796 7.84 55.8796 7.85333 56.0663 7.88C56.2796 7.90667 56.4796 7.94667 56.6663 8H56.7463C56.8796 8 57.0129 8.02667 57.1463 8.08C57.2796 8.13333 57.3996 8.18667 57.5063 8.24C57.6129 8.24 57.7463 8.26667 57.9063 8.32C58.0396 8.37333 58.1196 8.45333 58.1463 8.56C58.1729 8.66667 58.1463 8.74667 58.0663 8.8C58.0396 8.82667 57.9996 8.82667 57.9463 8.8C57.8929 8.77333 57.8396 8.76 57.7863 8.76C57.7329 8.76 57.6796 8.73333 57.6263 8.68C57.5729 8.62667 57.5196 8.58667 57.4663 8.56C57.3596 8.56 57.2396 8.57333 57.1063 8.6C56.9996 8.62667 56.8796 8.64 56.7463 8.64H56.6263C56.4396 8.64 56.3063 8.61333 56.2263 8.56C56.1729 8.48 56.0396 8.46667 55.8263 8.52C55.7996 8.52 55.7196 8.53333 55.5863 8.56C55.4529 8.58667 55.3596 8.6 55.3063 8.6C54.3463 8.84 53.5063 9.24 52.7863 9.8C52.0663 10.3333 51.4263 10.9333 50.8663 11.6C50.3329 12.2667 49.8129 12.9067 49.3063 13.52C49.0663 14 48.8263 14.3867 48.5863 14.68C48.5596 14.7067 48.5329 14.6933 48.5063 14.64C48.4796 14.5867 48.4529 14.5867 48.4263 14.64C48.3463 14.72 48.2796 14.8533 48.2263 15.04C48.1996 15.2 48.1463 15.3333 48.0663 15.44C48.0396 15.4667 48.0129 15.4533 47.9863 15.4C47.9596 15.3467 47.9196 15.3467 47.8663 15.4C47.8396 15.4267 47.7996 15.5333 47.7463 15.72C47.7196 15.88 47.6796 15.9867 47.6263 16.04C47.3063 16.4667 46.9596 16.88 46.5863 17.28C46.2129 17.68 45.8396 18.1467 45.4663 18.68C44.9329 19.5067 44.4263 20.32 43.9463 21.12C43.4663 21.92 42.9596 22.8 42.4263 23.76C42.2396 24.08 42.0929 24.3733 41.9863 24.64C41.9063 24.88 41.8129 25.1067 41.7063 25.32C41.6529 25.4 41.6263 25.5067 41.6263 25.64C41.6263 25.8267 41.7329 25.92 41.9463 25.92C42.1063 25.92 42.2663 25.88 42.4263 25.8L42.8263 25.64C43.4663 25.0533 44.1329 24.56 44.8263 24.16C44.8529 24.16 44.8663 24.16 44.8663 24.16C44.8929 24.1333 44.9196 24.12 44.9463 24.12C45.0263 24.12 45.0796 24.1733 45.1063 24.28C45.1329 24.36 45.1063 24.4267 45.0263 24.48C44.2529 24.9067 43.5329 25.4533 42.8663 26.12C42.8396 26.1733 42.8129 26.2267 42.7863 26.28C42.7596 26.3333 42.7196 26.3867 42.6663 26.44C42.6129 26.4933 42.5329 26.5867 42.4263 26.72C42.3463 26.8533 42.3063 26.9333 42.3063 26.96C42.2796 27.04 42.2396 27.0667 42.1863 27.04C42.1596 27.0133 42.0796 27.0533 41.9463 27.16C41.9196 27.1867 41.8929 27.24 41.8663 27.32C41.8663 27.4 41.8529 27.4667 41.8263 27.52C41.7996 27.6 41.7463 27.6667 41.6663 27.72C41.6129 27.7467 41.5863 27.7733 41.5863 27.8C41.5596 27.9067 41.5063 27.9733 41.4263 28C41.3729 28 41.3196 28.0267 41.2663 28.08C41.2396 28.1067 41.2396 28.1467 41.2663 28.2C41.2929 28.2533 41.2796 28.3067 41.2263 28.36C41.1996 28.44 41.1729 28.48 41.1463 28.48C41.1196 28.4533 41.0796 28.4667 41.0263 28.52C40.9196 28.6267 40.8396 28.68 40.7863 28.68C40.6263 28.7333 40.5596 28.7733 40.5863 28.8C40.6396 28.8267 40.6796 28.8533 40.7063 28.88C40.7596 28.88 40.7196 28.92 40.5863 29C40.5329 29.0267 40.4796 29.1067 40.4263 29.24C40.3729 29.3467 40.3196 29.4267 40.2663 29.48C40.1863 29.5333 40.1063 29.5733 40.0263 29.6C39.9729 29.6267 39.9063 29.68 39.8263 29.76C39.5863 30 39.3863 30.12 39.2263 30.12ZM54.2203 29.96C53.8203 29.96 53.527 29.7867 53.3403 29.44C53.3136 29.36 53.247 29.24 53.1403 29.08C53.0603 28.92 52.9936 28.7867 52.9403 28.68V28.64C52.9403 28.5867 52.9536 28.5333 52.9803 28.48C53.007 28.4267 53.0203 28.3733 53.0203 28.32C53.0203 28.2133 52.9936 28.12 52.9403 28.04C52.887 27.9333 52.8603 27.8267 52.8603 27.72C52.8603 27.3467 52.967 26.9067 53.1803 26.4C53.4203 25.8933 53.607 25.4533 53.7403 25.08C53.7936 24.8667 53.927 24.6133 54.1403 24.32C54.167 24.2933 54.1936 24.28 54.2203 24.28C54.2736 24.28 54.3136 24.2667 54.3403 24.24C54.3936 24.16 54.4203 24.08 54.4203 24C54.447 23.8933 54.4736 23.8 54.5003 23.72C54.527 23.6667 54.5803 23.64 54.6603 23.64C54.7403 23.64 54.7936 23.6133 54.8203 23.56C54.847 23.5067 54.807 23.48 54.7003 23.48C54.5936 23.48 54.5536 23.4533 54.5803 23.4C54.767 23.0533 54.967 22.6933 55.1803 22.32C55.4203 21.9467 55.5803 21.7067 55.6603 21.6C55.6336 21.6267 55.6203 21.6 55.6203 21.52C55.6203 21.4133 55.5936 21.3733 55.5403 21.4C55.5136 21.4267 55.447 21.4933 55.3403 21.6C55.2336 21.7067 55.1536 21.7867 55.1003 21.84C54.967 21.9467 54.807 22.0933 54.6203 22.28C54.4336 22.4667 54.3136 22.5867 54.2603 22.64C54.1803 22.6667 54.0736 22.7867 53.9403 23C53.807 23.1867 53.7136 23.3067 53.6603 23.36C53.5536 23.4667 53.447 23.52 53.3403 23.52C53.287 23.52 53.247 23.4933 53.2203 23.44C53.2203 23.36 53.247 23.28 53.3003 23.2C53.3536 23.1467 53.407 23.08 53.4603 23C53.5136 22.8933 53.5536 22.8133 53.5803 22.76C53.607 22.7333 53.647 22.6933 53.7003 22.64C53.7536 22.56 53.7803 22.5067 53.7803 22.48L54.1003 22.12C54.127 22.0933 54.1803 22.0933 54.2603 22.12C54.3403 22.12 54.3936 22.1067 54.4203 22.08C54.447 22.0267 54.407 22 54.3003 22C54.2203 21.9733 54.1936 21.9467 54.2203 21.92C54.4603 21.4933 54.767 21.08 55.1403 20.68C55.5136 20.28 55.767 20 55.9003 19.84C56.0336 19.68 56.207 19.56 56.4203 19.48C56.6603 19.3733 56.887 19.32 57.1003 19.32C57.287 19.32 57.4203 19.3333 57.5003 19.36C57.6603 19.4133 57.847 19.4933 58.0603 19.6C58.3003 19.68 58.447 19.8 58.5003 19.96C58.5803 20.12 58.527 20.3733 58.3403 20.72C58.1536 21.0667 57.927 21.4133 57.6603 21.76C57.4203 22.08 57.2203 22.2933 57.0603 22.4C57.0336 22.4267 56.967 22.44 56.8603 22.44C56.7536 22.44 56.6203 22.44 56.4603 22.44C56.3003 22.4133 56.207 22.4267 56.1803 22.48C56.1003 22.5867 56.007 22.6933 55.9003 22.8C55.7936 22.88 55.7136 22.9867 55.6603 23.12C55.6336 23.28 55.5936 23.4133 55.5403 23.52C55.5136 23.6267 55.4336 23.7867 55.3003 24C55.2736 24.0533 55.2203 24.1467 55.1403 24.28C55.0603 24.3867 55.007 24.4667 54.9803 24.52C54.7936 25.1067 54.6203 25.6667 54.4603 26.2C54.327 26.7067 54.2603 27.1333 54.2603 27.48C54.2603 27.8267 54.367 28.1333 54.5803 28.4C54.7936 28.64 55.0736 28.76 55.4203 28.76C55.8203 28.76 56.247 28.6267 56.7003 28.36C56.967 28.2533 57.2603 28.0533 57.5803 27.76C57.6336 27.7067 57.6736 27.6667 57.7003 27.64C57.7536 27.5867 57.807 27.5467 57.8603 27.52H57.9803C58.1136 27.52 58.1803 27.5733 58.1803 27.68C58.1803 27.7867 58.087 27.92 57.9003 28.08C57.7936 28.16 57.687 28.2267 57.5803 28.28C57.5003 28.3333 57.407 28.4 57.3003 28.48C57.167 28.56 57.0203 28.6933 56.8603 28.88C56.7003 29.04 56.5136 29.12 56.3003 29.12H56.2603C56.1803 29.12 56.1136 29.1067 56.0603 29.08C56.007 29.0267 55.9536 29.0133 55.9003 29.04C55.8203 29.0667 55.8203 29.12 55.9003 29.2C56.007 29.2533 56.0203 29.3067 55.9403 29.36L55.6203 29.52C55.0336 29.8133 54.567 29.96 54.2203 29.96ZM47.7403 29.72C47.5803 29.72 47.3803 29.5467 47.1403 29.2C46.9803 28.9867 46.9003 28.6533 46.9003 28.2C46.9003 27.7467 46.9803 27.2533 47.1403 26.72C47.327 26.1867 47.5536 25.72 47.8203 25.32C48.1136 24.7333 48.3136 24.2933 48.4203 24C48.527 23.7067 48.6336 23.4667 48.7403 23.28C48.7403 23.2533 48.7136 23.2267 48.6603 23.2C48.607 23.1733 48.5803 23.12 48.5803 23.04C48.4203 22.9333 48.247 22.7867 48.0603 22.6C47.9003 22.3867 47.887 22.1867 48.0203 22C48.0736 21.9467 48.1136 21.92 48.1403 21.92C48.167 21.8933 48.1803 21.88 48.1803 21.88V21.8C48.1803 21.6933 48.2203 21.6267 48.3003 21.6C48.407 21.5733 48.4603 21.5333 48.4603 21.48C48.5136 21.1067 48.8203 20.8267 49.3803 20.64C49.967 20.4533 50.487 20.36 50.9403 20.36C51.447 20.36 51.7003 20.44 51.7003 20.6C51.7003 20.68 51.607 20.7733 51.4203 20.88C51.3403 20.9067 51.207 21.0133 51.0203 21.2C50.8336 21.3867 50.6603 21.6133 50.5003 21.88L50.2203 22.36L49.9403 22.72C49.7803 23.0133 49.607 23.32 49.4203 23.64C49.2603 23.9333 48.9936 24.4933 48.6203 25.32C48.5136 25.5867 48.4203 25.84 48.3403 26.08C48.287 26.32 48.287 26.5067 48.3403 26.64C48.367 26.6667 48.2736 26.76 48.0603 26.92C47.8736 27.08 47.7936 27.1733 47.8203 27.2C47.847 27.2 47.887 27.2133 47.9403 27.24C47.9936 27.24 48.0603 27.24 48.1403 27.24C48.3003 27.24 48.4603 27.2133 48.6203 27.16C48.7003 27.1333 48.767 27.08 48.8203 27C48.8736 26.8933 48.9136 26.84 48.9403 26.84C49.1003 26.84 49.2736 26.8 49.4603 26.72C49.7536 26.5867 50.1136 26.32 50.5403 25.92C50.5936 25.8667 50.7003 25.8267 50.8603 25.8C51.0203 25.7467 51.1536 25.6533 51.2603 25.52C51.5803 25.2267 51.767 25.0533 51.8203 25C51.8736 24.92 52.0336 24.7467 52.3003 24.48C52.3003 24.4533 52.3536 24.3333 52.4603 24.12C52.567 23.88 52.6203 23.7467 52.6203 23.72C52.6736 23.5867 52.727 23.52 52.7803 23.52C52.887 23.52 52.967 23.6133 53.0203 23.8C53.1003 23.9867 53.1003 24.1467 53.0203 24.28C52.9936 24.3067 52.927 24.36 52.8203 24.44C52.7403 24.52 52.6736 24.5867 52.6203 24.64L52.1003 25.16L51.0203 26.12C50.9936 26.1467 50.967 26.1867 50.9403 26.24C50.9136 26.2933 50.8736 26.3467 50.8203 26.4L50.4603 26.96C50.4336 27.0133 50.3803 27.0133 50.3003 26.96C50.2203 26.88 50.1136 26.8933 49.9803 27C49.9536 27.0267 49.927 27.08 49.9003 27.16C49.9003 27.24 49.887 27.3067 49.8603 27.36C49.8336 27.44 49.8336 27.4933 49.8603 27.52C49.887 27.52 49.9003 27.5333 49.9003 27.56C49.8736 27.64 49.8203 27.6933 49.7403 27.72C49.687 27.7467 49.6336 27.7867 49.5803 27.84C49.5536 27.8667 49.5536 27.9067 49.5803 27.96C49.607 28.0133 49.5936 28.0667 49.5403 28.12C49.5136 28.2 49.487 28.2267 49.4603 28.2C49.4336 28.1733 49.3936 28.1867 49.3403 28.24C49.3136 28.2667 49.2736 28.3067 49.2203 28.36C49.1936 28.3867 49.1536 28.4133 49.1003 28.44C48.887 28.52 48.767 28.6267 48.7403 28.76C48.7136 28.8933 48.6203 29.04 48.4603 29.2C48.1136 29.5467 47.8736 29.72 47.7403 29.72ZM73.6981 31.48C73.5381 31.4267 73.3648 31.3867 73.1781 31.36C73.0181 31.3333 72.8448 31.2933 72.6581 31.24L72.8581 31.36C72.7515 31.36 72.6448 31.3333 72.5381 31.28C72.4581 31.2533 72.3781 31.2533 72.2981 31.28L71.5381 31.08L71.4981 31.04C71.3915 30.9333 71.2848 30.84 71.1781 30.76C71.0715 30.68 70.9248 30.6667 70.7381 30.72C70.7915 30.7467 70.8448 30.76 70.8981 30.76C70.9515 30.76 70.9915 30.7867 71.0181 30.84H70.9381C70.8315 30.84 70.7515 30.8133 70.6981 30.76C70.6448 30.7067 70.5781 30.6533 70.4981 30.6C70.0981 30.36 69.7381 30.08 69.4181 29.76V29.72C69.3115 29.5867 69.2315 29.4533 69.1781 29.32C69.1248 29.16 69.0315 29.04 68.8981 28.96H68.8581C68.7781 28.8 68.6981 28.6267 68.6181 28.44C68.5648 28.2267 68.5115 28.0267 68.4581 27.84C68.4581 27.76 68.4448 27.6933 68.4181 27.64C68.4181 27.56 68.4181 27.48 68.4181 27.4C68.4181 27.2933 68.4181 27.2 68.4181 27.12C68.4448 27.0133 68.4715 26.9067 68.4981 26.8C68.3648 26.8533 68.2981 26.8133 68.2981 26.68C68.2715 26.3867 68.2581 26.0933 68.2581 25.8C68.2848 25.5067 68.3248 25.1867 68.3781 24.84L68.4981 24.24C68.5515 24.1067 68.6315 24.0133 68.7381 23.96C68.8448 23.9067 68.8848 23.8133 68.8581 23.68C68.8315 23.68 68.8048 23.6933 68.7781 23.72C68.7515 23.7467 68.7115 23.76 68.6581 23.76C68.6581 23.76 68.6448 23.76 68.6181 23.76C68.6181 23.7333 68.6181 23.7067 68.6181 23.68H68.6581V23.64C68.6315 23.6133 68.6315 23.6 68.6581 23.6C68.6848 23.6 68.6848 23.5867 68.6581 23.56V23.52C68.6581 23.3867 68.6981 23.2533 68.7781 23.12C68.8581 22.96 68.9248 22.8 68.9781 22.64C69.0315 22.5067 69.1115 22.3867 69.2181 22.28C69.3515 22.1733 69.3915 22.04 69.3381 21.88H69.2181C69.2981 21.8267 69.3381 21.7733 69.3381 21.72L69.3781 21.68L69.7781 20.84H69.8181C70.0315 20.84 70.1248 20.7867 70.0981 20.68C70.0981 20.5733 70.0981 20.4533 70.0981 20.32V20.28L70.4181 19.76C70.5781 19.68 70.6848 19.56 70.7381 19.4C70.7915 19.2133 70.8715 19.0667 70.9781 18.96C71.0315 18.8267 71.1115 18.72 71.2181 18.64C71.3248 18.5333 71.4181 18.4133 71.4981 18.28C71.6581 18.0667 71.8181 17.8667 71.9781 17.68C72.1381 17.4667 72.3115 17.2667 72.4981 17.08C72.6315 17.0267 72.7248 16.96 72.7781 16.88C72.8315 16.8 72.8981 16.7067 72.9781 16.6C72.9781 16.5733 72.9781 16.56 72.9781 16.56C73.0048 16.56 73.0181 16.5467 73.0181 16.52C73.0981 16.4133 73.2048 16.3467 73.3381 16.32C73.4715 16.2933 73.5648 16.2133 73.6181 16.08C73.6715 15.9467 73.7515 15.8267 73.8581 15.72C74.0715 15.5067 74.2981 15.3067 74.5381 15.12C74.7781 14.9067 75.0181 14.7067 75.2581 14.52C75.4181 14.4933 75.5381 14.4667 75.6181 14.44C75.6981 14.3867 75.7381 14.28 75.7381 14.12H75.7781C76.0715 13.9067 76.3648 13.7067 76.6581 13.52C76.9515 13.3333 77.2315 13.16 77.4981 13C77.7115 12.8667 77.9115 12.7467 78.0981 12.64C78.3115 12.5333 78.5115 12.4267 78.6981 12.32H78.8181C78.9248 12.32 79.0048 12.2933 79.0581 12.24C79.1115 12.1867 79.1781 12.12 79.2581 12.04H79.2981C81.2715 11.16 83.0981 10.72 84.7781 10.72C84.9915 10.72 85.2181 10.7333 85.4581 10.76C85.6981 10.76 85.9248 10.7733 86.1381 10.8C87.3915 10.96 88.3381 11.3733 88.9781 12.04C89.6181 12.68 89.9381 13.3867 89.9381 14.16C89.9381 14.4267 89.8981 14.7067 89.8181 15C90.0848 14.8133 90.3248 14.6267 90.5381 14.44C90.7515 14.2533 90.9248 14.04 91.0581 13.8C91.1115 13.72 91.1781 13.6933 91.2581 13.72C91.3381 13.72 91.3515 13.76 91.2981 13.84C91.2181 14.08 91.0448 14.3467 90.7781 14.64C90.5115 14.9067 90.2181 15.1467 89.8981 15.36C89.8981 15.3867 89.8315 15.48 89.6981 15.64C89.5648 15.7733 89.5115 15.8667 89.5381 15.92C89.5381 15.9467 89.4981 16 89.4181 16.08C89.3648 16.1333 89.3248 16.1867 89.2981 16.24L89.0181 16.6C89.0181 16.6 89.0181 16.6133 89.0181 16.64C89.0181 16.64 89.0048 16.6533 88.9781 16.68C88.9781 16.68 88.9248 16.7067 88.8181 16.76C88.7648 16.8133 88.6848 16.9067 88.5781 17.04C88.4981 17.1733 88.3915 17.2667 88.2581 17.32L88.0981 17.4C88.0715 17.4267 88.0448 17.4667 88.0181 17.52C87.9915 17.5467 87.9515 17.5867 87.8981 17.64C87.7915 17.7467 87.5915 17.88 87.2981 18.04C87.0315 18.1733 86.8315 18.2933 86.6981 18.4C86.6981 18.4 86.6715 18.4133 86.6181 18.44C86.5648 18.4667 86.4981 18.5067 86.4181 18.56L86.2981 18.6C86.2715 18.6 86.2181 18.6267 86.1381 18.68C86.0848 18.7333 86.0448 18.7733 86.0181 18.8C85.9915 18.8267 85.9515 18.84 85.8981 18.84C85.8715 18.84 85.8315 18.8667 85.7781 18.92C85.7515 18.9467 85.7115 18.96 85.6581 18.96C85.6048 18.96 85.5515 18.9867 85.4981 19.04L84.8981 19.2C84.8715 19.2267 84.7915 19.28 84.6581 19.36C84.5515 19.4133 84.4848 19.44 84.4581 19.44H84.3781C84.3515 19.44 84.3248 19.4533 84.2981 19.48C84.2981 19.5067 84.2715 19.52 84.2181 19.52C84.1915 19.5467 84.1515 19.56 84.0981 19.56C84.0715 19.5333 84.0315 19.5333 83.9781 19.56C83.9515 19.56 83.9115 19.5867 83.8581 19.64C83.8315 19.6667 83.8048 19.68 83.7781 19.68H83.6581L83.4181 19.8C83.3115 19.8267 83.1915 19.84 83.0581 19.84C82.9515 19.84 82.8315 19.8667 82.6981 19.92C82.6715 19.92 82.6181 19.9067 82.5381 19.88C82.4848 19.8533 82.4315 19.84 82.3781 19.84C82.1381 19.92 81.8981 19.96 81.6581 19.96C81.6315 19.9867 81.6048 19.9867 81.5781 19.96C81.5781 19.9333 81.5648 19.92 81.5381 19.92C81.5115 19.92 81.4981 19.9333 81.4981 19.96C81.4981 19.96 81.4848 19.96 81.4581 19.96C81.4581 19.96 81.4181 19.96 81.3381 19.96C81.2848 19.9333 81.2448 19.9067 81.2181 19.88H81.1781C81.1248 19.88 81.0848 19.8667 81.0581 19.84C81.0315 19.8133 81.0048 19.8 80.9781 19.8C80.9781 19.8 80.9781 19.8133 80.9781 19.84C80.9781 19.84 80.9648 19.84 80.9381 19.84C80.9115 19.84 80.8848 19.8267 80.8581 19.8C80.8048 19.8 80.7115 19.7867 80.5781 19.76C80.4715 19.7067 80.4048 19.6667 80.3781 19.64C80.2981 19.6667 80.2181 19.64 80.1381 19.56C80.0848 19.5067 80.0581 19.4933 80.0581 19.52L79.7781 19.4C79.7781 19.3733 79.7648 19.36 79.7381 19.36C79.7381 19.3333 79.7381 19.32 79.7381 19.32H79.6581C79.6048 19.2667 79.5648 19.24 79.5381 19.24C79.5115 19.16 79.4848 19.1067 79.4581 19.08C79.4315 19.0533 79.3915 19.0133 79.3381 18.96C79.3381 18.8533 79.3248 18.8 79.2981 18.8C79.2981 18.7467 79.2581 18.6667 79.1781 18.56C79.1248 18.4267 79.0981 18.3067 79.0981 18.2L79.0581 18.16C78.9515 18.0533 78.9248 17.8667 78.9781 17.6C79.0048 17.4667 78.9915 17.4133 78.9381 17.44C78.8848 17.44 78.8981 17.36 78.9781 17.2L79.1781 16.8C79.1781 16.7733 79.1648 16.76 79.1381 16.76C79.1115 16.7333 79.1115 16.7067 79.1381 16.68C79.1381 16.6533 79.1381 16.64 79.1381 16.64C79.1648 16.6133 79.1781 16.5867 79.1781 16.56C79.2048 16.5333 79.2181 16.48 79.2181 16.4C79.2181 16.3467 79.2315 16.3067 79.2581 16.28C79.2581 16.2533 79.2848 16.2 79.3381 16.12C79.4181 16.0133 79.4715 15.9467 79.4981 15.92L79.7381 15.64C79.7648 15.6133 79.8048 15.5867 79.8581 15.56C79.9115 15.5333 79.9515 15.4933 79.9781 15.44C80.0315 15.3867 80.0848 15.36 80.1381 15.36C80.2181 15.3333 80.2715 15.2933 80.2981 15.24C80.3781 15.1067 80.4715 15.04 80.5781 15.04H80.6581C80.7648 15.04 80.8181 15.0667 80.8181 15.12C80.8181 15.2533 80.7381 15.36 80.5781 15.44C80.4715 15.5467 80.4181 15.6 80.4181 15.6C80.4181 15.5733 80.3781 15.6 80.2981 15.68C80.2981 15.7067 80.2715 15.72 80.2181 15.72C80.1915 15.72 80.1781 15.7467 80.1781 15.8C80.1515 15.8 80.1515 15.8133 80.1781 15.84C80.2048 15.8667 80.2048 15.9067 80.1781 15.96C80.1781 16.0667 80.1781 16.12 80.1781 16.12C80.1515 16.1467 80.1515 16.1867 80.1781 16.24C80.2048 16.2667 80.2048 16.3067 80.1781 16.36C80.1515 16.36 80.1248 16.3733 80.0981 16.4L80.0581 16.96C80.0581 16.96 80.0715 17.04 80.0981 17.2C80.1248 17.3333 80.1248 17.4133 80.0981 17.44V17.64C80.0981 17.72 80.2181 17.8 80.4581 17.88C80.4848 17.9067 80.5115 17.92 80.5381 17.92C80.5915 17.8933 80.6315 17.8933 80.6581 17.92C81.0048 18.0267 81.2315 18.1067 81.3381 18.16C81.4448 18.1867 81.6848 18.2 82.0581 18.2H82.3781C82.5115 18.2 82.6315 18.1867 82.7381 18.16C82.7648 18.16 82.7648 18.1733 82.7381 18.2C82.7381 18.2 82.7515 18.2 82.7781 18.2L83.2581 18.12C83.2848 18.0933 83.3115 18.08 83.3381 18.08C83.3648 18.0533 83.3915 18.0533 83.4181 18.08C83.4448 18.08 83.4715 18.08 83.4981 18.08L84.3781 17.84C84.5381 17.7867 84.6848 17.7333 84.8181 17.68C84.9781 17.6 85.1381 17.5467 85.2981 17.52C85.5381 17.4667 85.7915 17.3733 86.0581 17.24C86.3248 17.08 86.5915 16.9467 86.8581 16.84C86.8581 16.8133 86.9781 16.7333 87.2181 16.6C87.4848 16.4667 87.7648 16.32 88.0581 16.16L88.1781 15.76C88.2315 15.6267 88.3115 15.56 88.4181 15.56C88.5248 15.5333 88.6048 15.48 88.6581 15.4C88.5781 15.3467 88.5115 15.3067 88.4581 15.28C88.4048 15.2533 88.4048 15.1867 88.4581 15.08V15.04L88.6581 14.4C88.7648 14.08 88.8181 13.7733 88.8181 13.48C88.8181 12.8133 88.5648 12.3333 88.0581 12.04C87.5515 11.7467 86.9515 11.6 86.2581 11.6C86.1515 11.6 86.0315 11.6 85.8981 11.6C85.7915 11.6 85.6715 11.6133 85.5381 11.64C85.2981 11.6667 85.0581 11.7067 84.8181 11.76C84.5781 11.8133 84.3248 11.8667 84.0581 11.92H83.9781C83.8715 11.92 83.7781 11.9467 83.6981 12C83.6181 12.0267 83.5381 12.0667 83.4581 12.12C83.0848 12.2267 82.6715 12.3733 82.2181 12.56C81.9781 12.6133 81.8048 12.6933 81.6981 12.8C81.5915 12.8533 81.5248 12.88 81.4981 12.88V12.92C81.3381 12.9733 81.2048 13 81.0981 13C81.0448 13 80.9781 13 80.8981 13C80.8181 12.9733 80.7381 12.96 80.6581 12.96C80.7115 12.9867 80.7515 13 80.7781 13C80.8048 13 80.8315 13.0133 80.8581 13.04C80.8848 13.12 80.8581 13.1733 80.7781 13.2C80.7248 13.2267 80.6848 13.2667 80.6581 13.32H80.6181C80.5915 13.3467 80.5381 13.3733 80.4581 13.4C80.4048 13.4267 80.3515 13.4667 80.2981 13.52C80.0581 13.5467 79.8448 13.6267 79.6581 13.76C79.4981 13.8933 79.3515 14.04 79.2181 14.2H79.1781L78.2581 14.84C78.0448 14.9467 77.8581 15.08 77.6981 15.24C77.3515 15.5067 77.0048 15.7867 76.6581 16.08C76.3115 16.3733 75.9648 16.6667 75.6181 16.96H75.5381C75.4048 16.96 75.3248 17 75.2981 17.08C75.2981 17.1333 75.2715 17.2267 75.2181 17.36H75.1781C75.0981 17.4667 75.0048 17.56 74.8981 17.64C74.7915 17.6667 74.7248 17.72 74.6981 17.8C74.6715 17.88 74.6181 17.96 74.5381 18.04L74.2581 18.32C74.1515 18.2933 74.0315 18.2533 73.8981 18.2C73.7915 18.12 73.6715 18.08 73.5381 18.08C73.5381 18.08 73.5248 18.0933 73.4981 18.12C73.4981 18.12 73.4981 18.1467 73.4981 18.2C73.6581 18.2267 73.7915 18.2933 73.8981 18.4C74.0048 18.5067 73.9915 18.6267 73.8581 18.76L73.7781 18.84C73.6715 18.9467 73.5381 18.9867 73.3781 18.96C73.2448 18.9333 73.1248 18.9867 73.0181 19.12C73.0715 19.1467 73.1381 19.16 73.2181 19.16C73.2981 19.16 73.3381 19.2267 73.3381 19.36C73.2048 19.52 73.0715 19.68 72.9381 19.84C72.8315 20 72.7115 20.16 72.5781 20.32C72.4715 20.4267 72.3781 20.5467 72.2981 20.68C72.2181 20.7867 72.1115 20.88 71.9781 20.96C71.9515 20.9867 71.9381 21.0267 71.9381 21.08C71.9648 21.1067 71.9648 21.1333 71.9381 21.16V21.2L71.3381 22.16C71.2048 22.24 71.0981 22.32 71.0181 22.4C70.9381 22.48 70.8981 22.6 70.8981 22.76C71.0048 22.6533 71.0581 22.6133 71.0581 22.64V22.68C71.0581 22.7333 71.0315 22.7867 70.9781 22.84C70.9248 22.8667 70.8848 22.9067 70.8581 22.96L70.6581 23.44C70.3915 24.0533 70.2048 24.6 70.0981 25.08C69.9381 25.5867 69.8581 26.0667 69.8581 26.52C69.8315 26.6267 69.7781 26.7333 69.6981 26.84C69.6448 26.92 69.6581 27.0133 69.7381 27.12C69.7915 27.1733 69.8315 27.2133 69.8581 27.24C69.8848 27.24 69.8981 27.2933 69.8981 27.4C69.8981 27.5333 69.9115 27.6267 69.9381 27.68V27.8C69.9381 27.88 69.9115 27.96 69.8581 28.04C69.8048 28.12 69.7915 28.2 69.8181 28.28C69.8448 28.3067 69.8981 28.32 69.9781 28.32C70.0581 28.2933 70.1115 28.3067 70.1381 28.36L70.3781 28.8C70.4581 28.8533 70.5115 28.9333 70.5381 29.04C70.5648 29.1467 70.5915 29.2267 70.6181 29.28C70.6715 29.3333 70.7381 29.3867 70.8181 29.44C70.8981 29.4667 70.9515 29.52 70.9781 29.6C70.9781 29.6267 70.9648 29.6533 70.9381 29.68C70.9381 29.68 70.9381 29.7067 70.9381 29.76C71.0715 29.7067 71.0848 29.6 70.9781 29.44C71.1381 29.5467 71.1381 29.6533 70.9781 29.76C71.0315 29.76 71.0848 29.76 71.1381 29.76C71.1915 29.7333 71.2448 29.72 71.2981 29.72C71.4048 29.72 71.5115 29.76 71.6181 29.84C72.0448 30.0533 72.5248 30.2 73.0581 30.28C73.6181 30.3867 74.2181 30.44 74.8581 30.44C75.5781 30.44 76.3515 30.3733 77.1781 30.24C78.0048 30.1333 78.8315 29.9867 79.6581 29.8V29.76C79.7115 29.76 79.7515 29.7733 79.7781 29.8C79.8048 29.8 79.8315 29.8 79.8581 29.8C79.9915 29.8 80.1115 29.7467 80.2181 29.64L80.6581 29.52C80.8715 29.3867 81.0715 29.28 81.2581 29.2C81.4448 29.12 81.6448 29.1067 81.8581 29.16C81.9115 29.1867 81.9115 29.2133 81.8581 29.24C81.8315 29.24 81.8181 29.2667 81.8181 29.32C81.8715 29.2933 81.9115 29.2533 81.9381 29.2C81.9648 29.1467 82.0048 29.1067 82.0581 29.08L82.2981 29C82.4848 28.9733 82.6448 28.9333 82.7781 28.88C82.9115 28.8 83.0581 28.7333 83.2181 28.68L83.6581 28.52C83.7115 28.5467 83.7648 28.56 83.8181 28.56C83.9248 28.56 84.0048 28.5333 84.0581 28.48C84.1115 28.4 84.1915 28.32 84.2981 28.24C84.3248 28.24 84.3915 28.2133 84.4981 28.16C84.6315 28.1067 84.7781 28.0667 84.9381 28.04C85.0981 27.9867 85.2315 27.9067 85.3381 27.8H85.3781C85.7781 27.6133 86.1648 27.4267 86.5381 27.24C86.9115 27.0533 87.2715 26.8667 87.6181 26.68L88.6981 26.08C88.8315 25.9733 88.9381 25.88 89.0181 25.8C89.0981 25.72 89.2048 25.68 89.3381 25.68L89.3781 25.64C89.5648 25.4533 89.7648 25.3067 89.9781 25.2C90.1915 25.0667 90.3648 24.9333 90.4981 24.8C90.7115 24.6133 90.8715 24.52 90.9781 24.52C91.0581 24.52 91.0981 24.5733 91.0981 24.68C91.0981 24.8133 91.0181 24.96 90.8581 25.12C90.6181 25.3333 90.3515 25.5733 90.0581 25.84C89.7648 26.1067 89.4315 26.3867 89.0581 26.68C88.9248 26.7867 88.7781 26.8533 88.6181 26.88C88.4848 26.9067 88.3915 27 88.3381 27.16C88.1781 27.2667 88.0048 27.3733 87.8181 27.48C87.6581 27.5867 87.4715 27.6933 87.2581 27.8C87.0181 27.9333 86.7648 28.0667 86.4981 28.2C86.2581 28.3333 85.9915 28.4667 85.6981 28.6C85.6181 28.6 85.5248 28.6 85.4181 28.6C85.3381 28.5733 85.2581 28.56 85.1781 28.56C84.9915 28.56 84.8581 28.6 84.7781 28.68C84.7781 28.68 84.7781 28.6933 84.7781 28.72C84.7781 28.72 84.7915 28.7467 84.8181 28.8C84.8715 28.8 84.9248 28.8 84.9781 28.8C85.0315 28.7733 85.0848 28.7733 85.1381 28.8C85.1381 28.8 85.1381 28.8133 85.1381 28.84C85.1381 28.8667 85.1115 28.88 85.0581 28.88C84.9515 28.9333 84.8715 28.96 84.8181 28.96V29L84.5381 29.12H84.4981C84.3915 29.2267 84.3115 29.2 84.2581 29.04C84.1781 29.0667 84.0981 29.12 84.0181 29.2C83.9648 29.28 83.8981 29.3467 83.8181 29.4L83.5381 29.52C83.4315 29.5467 83.3248 29.5733 83.2181 29.6C83.1115 29.6 83.0315 29.64 82.9781 29.72H82.9381C82.8315 29.7733 82.6981 29.8267 82.5381 29.88C82.4048 29.9067 82.2715 29.9467 82.1381 30V30.04H81.9381C81.8048 30.04 81.6581 30.0267 81.4981 30C81.3381 29.9467 81.1781 29.92 81.0181 29.92C81.0715 30 81.1648 30.04 81.2981 30.04C81.4315 30.0667 81.4715 30.1333 81.4181 30.24C81.4181 30.2667 81.4048 30.28 81.3781 30.28L80.3381 30.56V30.6C80.2315 30.6267 80.1115 30.64 79.9781 30.64C79.8715 30.6667 79.7648 30.7067 79.6581 30.76C78.6181 31.0267 77.5915 31.2133 76.5781 31.32C75.5648 31.4267 74.6181 31.48 73.7381 31.48H73.6981ZM82.2981 19.56C82.3248 19.5333 82.3781 19.52 82.4581 19.52C82.5648 19.4933 82.6448 19.4667 82.6981 19.44L83.5781 19.36C83.6048 19.36 83.6315 19.3467 83.6581 19.32C83.6848 19.2933 83.7115 19.28 83.7381 19.28C83.7648 19.2533 83.8048 19.24 83.8581 19.24C83.9915 19.1333 84.0581 19.12 84.0581 19.2C84.0581 19.2533 84.1115 19.24 84.2181 19.16C84.2448 19.1333 84.2848 19.12 84.3381 19.12C84.3915 19.0667 84.4315 19.04 84.4581 19.04C84.5115 19.0133 84.5515 18.9867 84.5781 18.96C84.6315 18.9333 84.6581 18.92 84.6581 18.92C84.6581 18.8933 84.6848 18.88 84.7381 18.88H84.7781C84.8315 18.88 84.9248 18.84 85.0581 18.76C85.1915 18.68 85.2581 18.64 85.2581 18.64C85.2848 18.64 85.3115 18.6133 85.3381 18.56C85.3915 18.5067 85.4315 18.48 85.4581 18.48C85.4848 18.4533 85.5248 18.44 85.5781 18.44C85.6315 18.4133 85.6581 18.3867 85.6581 18.36C85.7115 18.3333 85.7648 18.3067 85.8181 18.28C85.8715 18.2533 85.9115 18.24 85.9381 18.24C85.9648 18.2133 86.0181 18.1733 86.0981 18.12C86.2048 18.0667 86.2581 18.0267 86.2581 18C86.3115 17.9467 86.3648 17.9067 86.4181 17.88C86.4981 17.8533 86.5515 17.8267 86.5781 17.8C86.6581 17.7733 86.8448 17.64 87.1381 17.4C87.4315 17.1333 87.6848 16.8267 87.8981 16.48C87.9515 16.4267 87.8315 16.4933 87.5381 16.68C87.2715 16.84 87.1248 16.9333 87.0981 16.96C87.0715 16.96 87.0181 17 86.9381 17.08C86.8581 17.1333 86.8048 17.16 86.7781 17.16L86.6981 17.24H86.5781L86.5381 17.28C86.5381 17.28 86.4848 17.3067 86.3781 17.36C86.3515 17.36 86.2981 17.3867 86.2181 17.44C86.1381 17.4933 86.0848 17.52 86.0581 17.52C86.0315 17.52 86.0048 17.5333 85.9781 17.56C85.9515 17.56 85.9248 17.56 85.8981 17.56C85.7915 17.64 85.6315 17.72 85.4181 17.8C85.2315 17.88 85.0981 17.92 85.0181 17.92H84.9781C84.9248 17.92 84.8715 17.9467 84.8181 18L84.7781 18.04L84.5781 18.08C84.5248 18.1067 84.4581 18.1333 84.3781 18.16C84.2981 18.1867 84.2315 18.2 84.1781 18.2C84.1515 18.2267 84.1381 18.24 84.1381 18.24C84.1381 18.2133 84.1381 18.2 84.1381 18.2C84.0848 18.2533 84.0181 18.28 83.9381 18.28C83.9115 18.28 83.8981 18.28 83.8981 18.28C83.8981 18.2533 83.8848 18.24 83.8581 18.24C83.8315 18.24 83.7781 18.28 83.6981 18.36H83.4981C83.4981 18.3867 83.4715 18.4 83.4181 18.4H83.3781C83.3515 18.4 83.3115 18.4133 83.2581 18.44C83.2048 18.4667 83.1648 18.48 83.1381 18.48C83.1115 18.48 83.0981 18.4933 83.0981 18.52C83.0981 18.52 83.0848 18.52 83.0581 18.52C83.0581 18.4933 83.0448 18.48 83.0181 18.48H82.9781L82.7381 18.56H82.6181C82.5381 18.56 82.4448 18.5467 82.3381 18.52C82.2581 18.4933 82.1648 18.4933 82.0581 18.52C82.0315 18.52 82.0181 18.5333 82.0181 18.56C82.0181 18.56 82.0048 18.56 81.9781 18.56H81.8981C81.8981 18.56 81.8848 18.56 81.8581 18.56C81.8581 18.56 81.8448 18.5733 81.8181 18.6C81.8181 18.5733 81.8048 18.56 81.7781 18.56H81.5381C81.5381 18.5333 81.5248 18.52 81.4981 18.52C81.4715 18.52 81.4448 18.5333 81.4181 18.56C81.3915 18.56 81.3648 18.56 81.3381 18.56C81.1781 18.56 81.0581 18.5067 80.9781 18.4C80.8981 18.2933 80.7515 18.2667 80.5381 18.32C80.5381 18.2933 80.5248 18.28 80.4981 18.28C80.4715 18.2533 80.4581 18.2267 80.4581 18.2H80.4181C80.3648 18.2533 80.3381 18.2933 80.3381 18.32C80.3115 18.3467 80.3115 18.3867 80.3381 18.44C80.3915 18.4667 80.4048 18.5067 80.3781 18.56C80.4048 18.5867 80.4181 18.6267 80.4181 18.68C80.4448 18.7067 80.4715 18.72 80.4981 18.72C80.4981 18.8 80.5381 18.88 80.6181 18.96C80.6181 18.9867 80.6315 19.0133 80.6581 19.04C80.7115 19.0667 80.7248 19.08 80.6981 19.08C80.7248 19.1067 80.7515 19.12 80.7781 19.12C80.8048 19.12 80.8181 19.1467 80.8181 19.2L80.9381 19.32H80.9781C81.2181 19.4267 81.4581 19.5067 81.6981 19.56C81.9648 19.5867 82.1648 19.5867 82.2981 19.56ZM90.1916 31.44C90.1382 31.28 90.1116 31.12 90.1116 30.96C90.1116 30.88 90.1249 30.8 90.1516 30.72C90.1516 30.6667 90.1649 30.6 90.1916 30.52C90.2182 30.44 90.2849 30.2267 90.3916 29.88C90.5249 29.5333 90.6449 29.1733 90.7516 28.8C90.8849 28.4267 90.9782 28.2133 91.0316 28.16C91.0316 28.16 91.1116 27.96 91.2716 27.56C91.4582 27.1333 91.6582 26.6933 91.8716 26.24C92.0849 25.76 92.2449 25.4533 92.3516 25.32C92.4849 25.0267 92.6849 24.6667 92.9516 24.24C93.2449 23.7867 93.5249 23.2533 93.7916 22.64V22.44C93.7916 22.36 93.7916 22.2933 93.7916 22.24C93.8182 22.16 93.8449 22.08 93.8716 22C93.9782 21.7867 94.0716 21.64 94.1516 21.56C94.2582 21.48 94.3649 21.3333 94.4716 21.12C94.4716 21.0667 94.4716 21.0133 94.4716 20.96C94.4982 20.9067 94.5249 20.8533 94.5516 20.8C94.4982 20.8533 94.4849 20.8133 94.5116 20.68C94.4582 20.68 94.5116 20.5467 94.6716 20.28C94.7782 20.04 94.8582 19.9067 94.9116 19.88H94.9516C95.0582 19.72 95.1516 19.5867 95.2316 19.48C95.3116 19.3467 95.3382 19.2667 95.3116 19.24V19.16C95.3116 18.9733 95.3649 18.8 95.4716 18.64C95.6049 18.48 95.7249 18.3067 95.8316 18.12C95.9116 18.0133 95.9782 17.96 96.0316 17.96C96.0849 17.96 96.1116 17.9733 96.1116 18C96.1382 18 96.1649 18 96.1916 18C96.2716 18 96.3116 17.9333 96.3116 17.8C96.3116 17.7467 96.2982 17.68 96.2716 17.6C96.2716 17.52 96.2582 17.4267 96.2316 17.32C96.2582 17.1867 96.3649 17.08 96.5516 17L96.6716 16.96C96.8049 16.4 96.9649 16.0267 97.1516 15.84C97.2049 15.7867 97.2582 15.7333 97.3116 15.68C97.3649 15.6267 97.4182 15.5733 97.4716 15.52C97.7916 15.1733 98.0316 14.8 98.1916 14.4C98.2449 14.2933 98.3116 14.2133 98.3916 14.16C98.4982 14.08 98.5916 13.9867 98.6716 13.88C98.7249 13.8 98.7382 13.72 98.7116 13.64C98.7116 13.5333 98.7249 13.44 98.7516 13.36C98.8849 13.1467 98.9782 13.0267 99.0316 13C99.0849 12.9733 99.1382 12.9467 99.1916 12.92C99.2716 12.8667 99.4049 12.7467 99.5916 12.56C99.6716 12.4267 99.7516 12.2933 99.8316 12.16C99.9382 12.0267 100.045 11.8933 100.152 11.76C100.312 11.5733 100.485 11.44 100.672 11.36C100.858 11.28 101.045 11.16 101.232 11C101.285 10.9467 101.312 10.8667 101.312 10.76C101.312 10.6267 101.338 10.5333 101.392 10.48C102.325 9.73333 103.325 9.10667 104.392 8.6C105.485 8.09333 106.325 7.84 106.912 7.84C107.125 7.84 107.325 7.85333 107.512 7.88C107.725 7.90667 107.925 7.94667 108.112 8H108.192C108.325 8 108.458 8.02667 108.592 8.08C108.725 8.13333 108.845 8.18667 108.952 8.24C109.058 8.24 109.192 8.26667 109.352 8.32C109.485 8.37333 109.565 8.45333 109.592 8.56C109.618 8.66667 109.592 8.74667 109.512 8.8C109.485 8.82667 109.445 8.82667 109.392 8.8C109.338 8.77333 109.285 8.76 109.232 8.76C109.178 8.76 109.125 8.73333 109.072 8.68C109.018 8.62667 108.965 8.58667 108.912 8.56C108.805 8.56 108.685 8.57333 108.552 8.6C108.445 8.62667 108.325 8.64 108.192 8.64H108.072C107.885 8.64 107.752 8.61333 107.672 8.56C107.618 8.48 107.485 8.46667 107.272 8.52C107.245 8.52 107.165 8.53333 107.032 8.56C106.898 8.58667 106.805 8.6 106.752 8.6C105.792 8.84 104.952 9.24 104.232 9.8C103.512 10.3333 102.872 10.9333 102.312 11.6C101.778 12.2667 101.258 12.9067 100.752 13.52C100.512 14 100.272 14.3867 100.032 14.68C100.005 14.7067 99.9782 14.6933 99.9516 14.64C99.9249 14.5867 99.8982 14.5867 99.8716 14.64C99.7916 14.72 99.7249 14.8533 99.6716 15.04C99.6449 15.2 99.5916 15.3333 99.5116 15.44C99.4849 15.4667 99.4582 15.4533 99.4316 15.4C99.4049 15.3467 99.3649 15.3467 99.3116 15.4C99.2849 15.4267 99.2449 15.5333 99.1916 15.72C99.1649 15.88 99.1249 15.9867 99.0716 16.04C98.7516 16.4667 98.4049 16.88 98.0316 17.28C97.6582 17.68 97.2849 18.1467 96.9116 18.68C96.3782 19.5067 95.8716 20.32 95.3916 21.12C94.9116 21.92 94.4049 22.8 93.8716 23.76C93.6849 24.08 93.5382 24.3733 93.4316 24.64C93.3516 24.88 93.2582 25.1067 93.1516 25.32C93.0982 25.4 93.0716 25.5067 93.0716 25.64C93.0716 25.8267 93.1782 25.92 93.3916 25.92C93.5516 25.92 93.7116 25.88 93.8716 25.8L94.4316 25.56H94.5116C94.5916 25.56 94.6449 25.6 94.6716 25.68C94.7249 25.7333 94.6716 25.8133 94.5116 25.92C94.4049 25.9733 94.3382 26.04 94.3116 26.12C94.2849 26.2 94.2182 26.3067 94.1116 26.44C94.0582 26.4933 93.9782 26.5867 93.8716 26.72C93.7916 26.8533 93.7516 26.9333 93.7516 26.96C93.7249 27.04 93.6849 27.0667 93.6316 27.04C93.6049 27.0133 93.5249 27.0533 93.3916 27.16C93.3649 27.1867 93.3382 27.24 93.3116 27.32C93.3116 27.4 93.2982 27.4667 93.2716 27.52C93.2449 27.6 93.1916 27.6667 93.1116 27.72C93.0582 27.7467 93.0316 27.7733 93.0316 27.8C93.0049 27.9067 92.9516 27.9733 92.8716 28C92.8182 28 92.7649 28.0267 92.7116 28.08C92.6849 28.1067 92.6849 28.1467 92.7116 28.2C92.7382 28.2533 92.7249 28.3067 92.6716 28.36L92.2716 29.2C92.2449 29.2533 92.2049 29.3067 92.1516 29.36C92.1249 29.4133 92.0849 29.4533 92.0316 29.48C92.0049 29.48 91.9516 29.4667 91.8716 29.44C91.8182 29.4133 91.7916 29.4267 91.7916 29.48C91.7649 29.5067 91.7649 29.5867 91.7916 29.72C91.8449 29.8267 91.8316 29.9067 91.7516 29.96C91.6716 30.0133 91.5916 30.12 91.5116 30.28C91.4582 30.4667 91.4049 30.5867 91.3516 30.64C91.2449 30.7467 91.1516 30.8133 91.0716 30.84C90.9916 30.8933 90.9116 30.9733 90.8316 31.08C90.8049 31.1067 90.7116 31.2133 90.5516 31.4C90.3916 31.6133 90.2716 31.6267 90.1916 31.44ZM102.592 30.12C102.512 30.12 102.432 30.12 102.352 30.12C102.272 30.12 102.192 30.1067 102.112 30.08C101.632 29.9733 101.245 29.6667 100.952 29.16C100.685 28.6267 100.472 28.0133 100.312 27.32C100.178 26.6 100.085 25.8933 100.032 25.2C100.005 24.48 99.9916 23.8933 99.9916 23.44C99.9649 22.72 99.7782 22.36 99.4316 22.36C99.2716 22.36 99.0849 22.4267 98.8716 22.56C98.8449 22.6133 98.7916 22.6533 98.7116 22.68C98.6582 22.68 98.5782 22.7067 98.4716 22.76L98.3516 22.88C98.3516 22.9067 98.3249 22.92 98.2716 22.92C98.2182 22.8933 98.1916 22.8933 98.1916 22.92C98.2182 23.1067 98.1649 23.16 98.0316 23.08C97.8716 23.1867 97.7516 23.28 97.6716 23.36C97.6716 23.3867 97.6449 23.4267 97.5916 23.48L97.5516 23.52C97.5249 23.5467 97.4982 23.5867 97.4716 23.64C97.4449 23.6667 97.3916 23.6667 97.3116 23.64L97.1916 23.76C97.1916 23.7867 97.1782 23.8267 97.1516 23.88C97.1249 23.9333 97.0716 23.9467 96.9916 23.92L96.7916 24.08C96.6582 24.2933 96.5249 24.4 96.3916 24.4L96.1116 24.76L95.9916 24.8C95.9916 24.9067 95.8982 24.9867 95.7116 25.04C95.6849 25.0667 95.5916 25.1333 95.4316 25.24C95.2716 25.32 95.1916 25.36 95.1916 25.36C95.1382 25.3333 95.0716 25.32 94.9916 25.32C94.9382 25.32 94.9649 25.24 95.0716 25.08C95.0982 25.0267 95.1516 24.9867 95.2316 24.96C95.3116 24.9067 95.4049 24.8267 95.5116 24.72C95.5916 24.6133 95.6582 24.5067 95.7116 24.4C95.7916 24.2933 95.8449 24.24 95.8716 24.24L96.5516 23.64C96.6049 23.7467 96.6316 23.7467 96.6316 23.64C96.6316 23.5333 96.6582 23.4933 96.7116 23.52C96.7916 23.4133 96.8716 23.32 96.9516 23.24C97.0582 23.16 97.1649 23.08 97.2716 23C97.2716 22.9733 97.3249 22.92 97.4316 22.84C97.5382 22.7867 97.6049 22.76 97.6316 22.76C97.6582 22.76 97.7116 22.7067 97.7916 22.6L98.0316 22.44C98.0582 22.3867 98.0849 22.3867 98.1116 22.44C98.1649 22.4933 98.2049 22.5067 98.2316 22.48L98.2716 22.24C98.2982 22.16 98.3649 22.0933 98.4716 22.04C98.6049 21.9867 98.7249 21.92 98.8316 21.84C99.0982 21.5733 99.3116 21.44 99.4716 21.44C99.4982 21.4667 99.5516 21.4667 99.6316 21.44C99.8449 21.3333 100.112 21.28 100.432 21.28C100.832 21.28 101.165 21.4267 101.432 21.72C101.512 21.8 101.592 21.92 101.672 22.08C101.672 22.08 101.698 22.16 101.752 22.32L101.832 22.64C101.885 22.7733 101.845 22.8667 101.712 22.92C101.845 23.0267 101.898 23.0933 101.872 23.12C101.845 23.1467 101.832 23.1867 101.832 23.24L101.872 23.72V23.96C101.872 24.04 101.872 24.12 101.872 24.2C101.872 24.2533 101.858 24.3467 101.832 24.48C101.965 24.6133 101.978 24.6933 101.872 24.72C101.872 24.72 101.858 24.7333 101.832 24.76C101.832 24.76 101.818 24.76 101.792 24.76V24.88L101.912 25L101.832 25.24C101.858 25.2133 101.872 25.2 101.872 25.2C101.898 25.2 101.912 25.2 101.912 25.2L101.792 25.92C101.792 26.16 101.818 26.3467 101.872 26.48C101.925 26.5867 101.898 26.64 101.792 26.64H101.752C101.805 26.7467 101.832 26.8267 101.832 26.88C101.832 26.9867 101.818 27.08 101.792 27.16C101.765 27.2133 101.752 27.2933 101.752 27.4V27.44C101.805 27.52 101.845 27.6533 101.872 27.84C101.925 28.0267 101.952 28.2 101.952 28.36C101.952 28.52 101.938 28.6267 101.912 28.68L101.952 28.72C102.005 28.7733 102.058 28.8267 102.112 28.88C102.192 28.9067 102.205 28.9467 102.152 29C102.098 29.0533 102.098 29.08 102.152 29.08C102.205 29.1333 102.245 29.16 102.272 29.16C102.378 29.2133 102.458 29.24 102.512 29.24L102.592 29.28C102.618 29.3067 102.645 29.32 102.672 29.32C103.205 29.4 103.725 29.1333 104.232 28.52C104.285 28.44 104.352 28.4 104.432 28.4C104.485 28.4 104.525 28.44 104.552 28.52C104.605 28.6 104.592 28.6933 104.512 28.8C104.165 29.3067 103.832 29.6533 103.512 29.84C103.192 30.0267 102.885 30.12 102.592 30.12ZM107.324 30.08C106.657 30.08 106.07 29.8933 105.564 29.52C105.057 29.1467 104.804 28.5067 104.804 27.6C104.804 27.2533 104.844 26.9067 104.924 26.56C105.004 26.1867 105.097 25.8267 105.204 25.48C105.257 25.1333 105.337 24.8267 105.444 24.56C105.47 24.4533 105.484 24.4 105.484 24.4C105.51 24.3733 105.577 24.3333 105.684 24.28L106.004 23.8V23.64C105.977 23.64 105.964 23.64 105.964 23.64C105.964 23.6133 105.964 23.6 105.964 23.6C105.964 23.52 106.03 23.4267 106.164 23.32C106.297 23.2133 106.364 23.16 106.364 23.16C106.39 23.0267 106.43 22.96 106.484 22.96C106.537 22.96 106.604 22.92 106.684 22.84H107.124V22.76C107.124 22.6267 107.057 22.5733 106.924 22.6C106.817 22.6 106.764 22.5867 106.764 22.56C106.764 22.5333 106.804 22.48 106.884 22.4C106.99 22.2933 107.057 22.2267 107.084 22.2C107.164 22.0933 107.23 22 107.284 21.92C107.337 21.8133 107.417 21.7333 107.524 21.68C108.004 21.0933 108.297 20.72 108.404 20.56C108.537 20.4 108.67 20.28 108.804 20.2C108.857 20.2 108.897 20.2267 108.924 20.28C108.977 20.3067 108.977 20.3467 108.924 20.4C108.977 20.48 109.017 20.4933 109.044 20.44C109.097 20.3867 109.124 20.36 109.124 20.36L109.284 20.28C109.23 20.2267 109.204 20.16 109.204 20.08C109.204 19.9467 109.23 19.84 109.284 19.76C109.337 19.6533 109.43 19.5467 109.564 19.44C109.724 19.3333 109.804 19.2667 109.804 19.24C109.964 19.1867 110.084 19.1333 110.164 19.08C110.27 19.0267 110.377 19 110.484 19C110.67 19 110.857 19.0667 111.044 19.2C111.55 19.4667 111.977 19.7333 112.324 20C112.67 20.2667 112.844 20.64 112.844 21.12C112.844 21.6267 112.63 22.0667 112.204 22.44C111.804 22.7867 111.31 23.08 110.724 23.32C110.137 23.56 109.55 23.76 108.964 23.92C108.404 24.0533 107.964 24.16 107.644 24.24C107.457 24.2667 107.364 24.3467 107.364 24.48C107.39 24.5867 107.377 24.7067 107.324 24.84L107.044 25.28L106.804 25.84L106.604 26.2C106.417 26.36 106.35 26.48 106.404 26.56C106.457 26.64 106.55 26.6267 106.684 26.52C106.71 26.5467 106.724 26.5867 106.724 26.64C106.724 26.7467 106.697 26.88 106.644 27.04C106.59 27.1733 106.55 27.28 106.524 27.36C106.497 27.4667 106.497 27.52 106.524 27.52C106.577 27.4933 106.604 27.5467 106.604 27.68L106.644 28.24C106.804 28.7467 107.164 29.04 107.724 29.12C107.777 29.12 107.83 29.1333 107.884 29.16C107.964 29.16 108.03 29.16 108.084 29.16C108.564 29.16 108.817 29.12 108.844 29.04C108.897 28.96 108.964 28.9067 109.044 28.88C109.284 28.8267 109.484 28.7733 109.644 28.72C109.83 28.6667 110.017 28.5867 110.204 28.48C110.524 28.3467 110.83 28.1733 111.124 27.96C111.417 27.7467 111.724 27.5333 112.044 27.32L112.444 27.04C112.47 26.9867 112.47 26.9467 112.444 26.92C112.417 26.8933 112.417 26.8667 112.444 26.84C112.497 26.8133 112.537 26.8133 112.564 26.84C112.617 26.84 112.657 26.8267 112.684 26.8C112.737 26.7733 112.79 26.7333 112.844 26.68C112.897 26.6 112.95 26.5333 113.004 26.48C113.057 26.4267 113.084 26.3733 113.084 26.32C113.11 26.2667 113.15 26.2133 113.204 26.16C113.417 25.9467 113.63 25.72 113.844 25.48C114.084 25.24 114.284 25.0267 114.444 24.84C114.63 24.5733 114.777 24.44 114.884 24.44C114.937 24.44 114.964 24.4667 114.964 24.52C114.964 24.6533 114.87 24.8533 114.684 25.12C114.23 25.7867 113.71 26.44 113.124 27.08C112.537 27.6933 111.897 28.2533 111.204 28.76C110.697 29.1067 110.097 29.4133 109.404 29.68C108.71 29.9467 108.017 30.08 107.324 30.08ZM107.924 23.64C108.324 23.6133 108.844 23.5067 109.484 23.32C110.124 23.1067 110.657 22.8267 111.084 22.48C111.537 22.1067 111.764 21.6933 111.764 21.24C111.764 20.8133 111.537 20.4 111.084 20C110.71 20.2667 110.297 20.6533 109.844 21.16C109.417 21.64 109.03 22.12 108.684 22.6C108.337 23.0533 108.084 23.4 107.924 23.64ZM113.951 30.12C113.791 30.12 113.711 30.0267 113.711 29.84C113.711 29.7067 113.751 29.5467 113.831 29.36C114.044 28.9067 114.298 28.2667 114.591 27.44C114.884 26.6133 115.244 25.9067 115.671 25.32L117.231 21.84C117.231 21.84 117.204 21.8267 117.151 21.8C117.098 21.7467 117.071 21.6933 117.071 21.64C116.911 21.5333 116.738 21.3867 116.551 21.2C116.391 20.9867 116.378 20.7733 116.511 20.56C116.564 20.5067 116.604 20.48 116.631 20.48C116.658 20.48 116.671 20.48 116.671 20.48V20.4C116.671 20.2933 116.711 20.2267 116.791 20.2C116.898 20.1733 116.964 20.1333 116.991 20.08C117.044 19.7067 117.351 19.4267 117.911 19.24C118.498 19.0533 119.018 18.96 119.471 18.96C119.924 18.96 120.151 19.0267 120.151 19.16C120.151 19.24 120.071 19.3333 119.911 19.44C119.858 19.4933 119.724 19.6133 119.511 19.8C119.324 19.9867 119.151 20.2133 118.991 20.48L118.711 20.96L118.431 21.32C118.004 22.0933 117.658 22.7467 117.391 23.28C117.124 23.8133 116.804 24.4933 116.431 25.32C116.351 25.48 116.311 25.6133 116.311 25.72C116.311 25.8533 116.364 25.92 116.471 25.92C116.524 25.92 116.578 25.9067 116.631 25.88C116.711 25.8267 116.791 25.7867 116.871 25.76C117.084 25.6267 117.258 25.5067 117.391 25.4C117.551 25.2667 117.724 25.1333 117.911 25C117.991 24.92 118.058 24.92 118.111 25C118.164 25.0533 118.164 25.1333 118.111 25.24C118.004 25.4533 117.924 25.5867 117.871 25.64C117.844 25.6667 117.804 25.6933 117.751 25.72C117.698 25.7467 117.578 25.8667 117.391 26.08L117.231 26.4C117.178 26.4533 117.111 26.56 117.031 26.72C116.978 26.8533 116.951 26.9333 116.951 26.96C116.951 27.0133 116.924 27.04 116.871 27.04C116.818 27.0133 116.738 27.0533 116.631 27.16C116.604 27.1867 116.591 27.24 116.591 27.32C116.618 27.4 116.604 27.4667 116.551 27.52C116.524 27.6 116.484 27.6667 116.431 27.72C116.378 27.7467 116.351 27.7733 116.351 27.8C116.324 27.9067 116.271 27.9733 116.191 28C116.138 28 116.084 28.0267 116.031 28.08C116.004 28.08 115.991 28.1067 115.991 28.16C115.991 28.3733 115.964 28.4667 115.911 28.44C115.858 28.4133 115.804 28.44 115.751 28.52C115.698 28.6267 115.631 28.68 115.551 28.68C115.391 28.7333 115.324 28.7733 115.351 28.8C115.378 28.8267 115.418 28.8533 115.471 28.88C115.524 28.88 115.484 28.92 115.351 29C115.271 29.0267 115.204 29.1067 115.151 29.24C115.098 29.3467 115.044 29.4267 114.991 29.48C114.938 29.5333 114.871 29.5733 114.791 29.6C114.711 29.6267 114.644 29.68 114.591 29.76C114.351 30 114.138 30.12 113.951 30.12ZM125.871 29.8C125.764 29.8 125.671 29.8 125.591 29.8C125.511 29.7733 125.431 29.7467 125.351 29.72C125.084 29.6667 124.844 29.5867 124.631 29.48C124.444 29.3733 124.284 29.1733 124.151 28.88C124.124 28.7467 124.058 28.5733 123.951 28.36C123.871 28.1467 123.818 27.9467 123.791 27.76C123.764 27.6267 123.751 27.4667 123.751 27.28C123.724 27.1467 123.711 26.9733 123.711 26.76C123.658 26.4933 123.631 26.2533 123.631 26.04C123.658 25.8267 123.671 25.5733 123.671 25.28C123.671 24.9867 123.684 24.7733 123.711 24.64C123.764 24.4 123.791 24.28 123.791 24.28C123.791 24.2533 123.791 24.12 123.791 23.88C123.818 23.56 123.831 23.2267 123.831 22.88C123.831 22.5333 123.844 22.2533 123.871 22.04C123.951 21.24 123.791 20.84 123.391 20.84C123.231 20.84 123.018 20.9067 122.751 21.04C122.724 21.12 122.671 21.1733 122.591 21.2C122.538 21.2 122.458 21.2267 122.351 21.28L122.151 21.4C122.151 21.4267 122.124 21.44 122.071 21.44C122.018 21.4133 121.991 21.4267 121.991 21.48C122.018 21.5867 122.004 21.6533 121.951 21.68C121.924 21.7067 121.884 21.6933 121.831 21.64L121.391 21.96C121.391 21.9867 121.351 22.04 121.271 22.12L121.231 22.16C121.124 22.2667 121.031 22.32 120.951 22.32L120.831 22.44C120.831 22.4667 120.804 22.52 120.751 22.6C120.724 22.6533 120.658 22.6667 120.551 22.64L120.351 22.84C120.244 23 120.151 23.0933 120.071 23.12C120.018 23.1467 119.951 23.1733 119.871 23.2L119.551 23.6L119.391 23.64C119.391 23.7467 119.271 23.9067 119.031 24.12C118.818 24.3333 118.671 24.48 118.591 24.56C118.511 24.64 118.431 24.68 118.351 24.68C118.298 24.68 118.271 24.6533 118.271 24.6C118.271 24.5733 118.338 24.4667 118.471 24.28C118.578 24.1733 118.738 23.9733 118.951 23.68C119.191 23.3867 119.324 23.2533 119.351 23.28C119.484 23.1467 119.578 23.0133 119.631 22.88C119.684 22.72 119.778 22.5867 119.911 22.48C119.911 22.5067 119.911 22.5333 119.911 22.56C119.938 22.56 119.951 22.56 119.951 22.56C120.004 22.56 120.071 22.4933 120.151 22.36C120.231 22.2 120.284 22.1333 120.311 22.16L120.991 21.56C120.991 21.5333 121.058 21.48 121.191 21.4C121.298 21.3467 121.364 21.32 121.391 21.32C121.418 21.32 121.484 21.24 121.591 21.08L121.871 20.88C121.898 20.8267 121.924 20.84 121.951 20.92C122.004 20.9733 122.044 20.9867 122.071 20.96L122.191 20.68C122.244 20.6 122.324 20.5333 122.431 20.48C122.564 20.4 122.698 20.32 122.831 20.24C123.151 19.92 123.391 19.76 123.551 19.76H123.711C124.058 19.6267 124.378 19.56 124.671 19.56C125.098 19.56 125.431 19.72 125.671 20.04C125.724 20.12 125.778 20.2667 125.831 20.48C125.884 20.5067 125.898 20.5467 125.871 20.6C125.871 20.6267 125.884 20.6667 125.911 20.72C125.938 20.7733 125.991 20.84 126.071 20.92C126.151 20.9733 126.191 21.04 126.191 21.12V21.2C126.191 21.3067 126.124 21.4 125.991 21.48C126.124 21.5867 126.178 21.6533 126.151 21.68C126.151 21.68 126.138 21.72 126.111 21.8L126.031 22.36C126.004 22.5467 125.964 22.6933 125.911 22.8C125.858 22.88 125.804 23.0267 125.751 23.24C125.858 23.4 125.858 23.5067 125.751 23.56H125.671L125.631 23.72C125.631 23.7733 125.658 23.8267 125.711 23.88L125.591 24.12C125.618 24.0933 125.631 24.0933 125.631 24.12C125.658 24.12 125.671 24.12 125.671 24.12C125.644 24.1733 125.604 24.28 125.551 24.44C125.498 24.5733 125.458 24.68 125.431 24.76C125.404 24.8933 125.351 24.96 125.271 24.96C125.191 24.96 125.164 25.0267 125.191 25.16C125.218 25.1867 125.231 25.28 125.231 25.44C125.258 25.5733 125.244 25.64 125.191 25.64L125.111 26.12V26.24C125.111 26.3733 125.084 26.5067 125.031 26.64C125.004 26.7733 124.978 26.9067 124.951 27.04C124.924 27.1733 124.898 27.32 124.871 27.48C124.871 27.6133 124.871 27.7467 124.871 27.88C124.871 27.9867 124.871 28.1067 124.871 28.24C124.898 28.3467 124.924 28.4533 124.951 28.56C124.951 28.5867 124.991 28.6667 125.071 28.8C125.151 28.9333 125.191 29.0133 125.191 29.04L125.311 29.16C125.364 29.1867 125.444 29.1867 125.551 29.16C125.684 29.1333 125.778 29.1467 125.831 29.2C126.071 29.2267 126.378 29.1067 126.751 28.84C127.151 28.5467 127.511 28.2267 127.831 27.88C127.911 27.8 127.991 27.76 128.071 27.76C128.124 27.76 128.164 27.8 128.191 27.88C128.218 27.96 128.191 28.0667 128.111 28.2C127.684 28.8133 127.284 29.24 126.911 29.48C126.538 29.6933 126.191 29.8 125.871 29.8Z" fill="black"/>
</g>
<defs>
<clipPath id="clip0_9_211">
<rect width="129" height="46" fill="white"/>
</clipPath>
</defs>
</svg>
